<svg width="340" height="80" viewBox="0 0 340 80" fill="none" xmlns="http://www.w3.org/2000/svg">
  <!-- Variant A: Denser amorphous dot cloud (left) -->
  <g>
    <circle cx="22" cy="38" r="7" fill="#E0E7FF"/>
    <circle cx="32" cy="28" r="6" fill="#C7D2FE"/>
    <circle cx="42" cy="36" r="7" fill="#A5B4FC"/>
    <circle cx="28" cy="54" r="5" fill="#6366F1"/>
    <circle cx="48" cy="52" r="6" fill="#818CF8"/>
    <circle cx="36" cy="62" r="4" fill="#6366F1"/>
    <circle cx="16" cy="50" r="4" fill="#818CF8"/>
    <circle cx="54" cy="40" r="5" fill="#A5B4FC"/>
    <circle cx="50" cy="24" r="4" fill="#C7D2FE"/>
    <circle cx="26" cy="44" r="3" fill="#6366F1"/>
    <circle cx="38" cy="48" r="3" fill="#A5B4FC"/>
    <circle cx="44" cy="58" r="3" fill="#818CF8"/>
    <circle cx="20" cy="60" r="3" fill="#C7D2FE"/>
  </g>
  <!-- Large horizontal arrows, spaced and bold -->
  <g>
    <path d="M65 32 H120" stroke="#6366F1" stroke-width="6" marker-end="url(#arrowhead)"/>
    <path d="M65 40 H120" stroke="#6366F1" stroke-width="6" marker-end="url(#arrowhead)"/>
    <path d="M65 48 H120" stroke="#6366F1" stroke-width="6" marker-end="url(#arrowhead)"/>
  </g>
  <!-- Selector ring, slightly larger -->
  <circle cx="135" cy="40" r="15" fill="#EEF2FF" stroke="#6366F1" stroke-width="4"/>
  <!-- Decider dot, larger -->
  <circle cx="135" cy="40" r="7" fill="#6366F1"/>
  <defs>
    <marker id="arrowhead" markerWidth="10" markerHeight="10" refX="10" refY="5" orient="auto" markerUnits="strokeWidth">
      <path d="M0,0 L10,5 L0,10" fill="#6366F1" />
    </marker>
  </defs>
</svg>