<svg xmlns="http://www.w3.org/2000/svg" width="1024" height="1024" viewBox="0 0 1024 1024">
  <rect x="128" y="128" width="768" height="768" rx="220" fill="#12130F"/>
  <path d="M512 768L400 864c-8 6-18 9-28 9-22 0-40-18-40-40v-92h-44c-110 0-172-62-172-172V320c0-110 62-172 172-172h416c110 0 172 62 172 172v272c0 110-62 172-172 172H512z" fill="#12130F"/>
  <path d="M670 370c16 14 24 30 24 46 0 12-5 24-16 36L486 648c-12 14-28 20-44 20-16 0-30-6-42-18l-124-124c-12-12-18-26-18-42 0-12 4-24 12-34l42-46c12-14 26-20 42-20 16 0 30 6 42 18l80 81 188-206c12-12 26-18 42-18 18 0 34 6 48 20l36 35z" fill="#F6EEE5"/>
</svg>